<svg width="393" height="661" viewBox="0 0 393 661" fill="none" xmlns="http://www.w3.org/2000/svg">
<g opacity="0.13">
<path d="M165.867 507.128C175.151 511.1 183.366 517.409 189.792 525.502C190.724 526.668 191.55 527.889 192.464 529.203C193.578 530.159 194.965 530.693 196.402 530.72C198.164 530.67 199.838 529.893 201.06 528.555L201.218 528.315C207.899 518.919 216.888 511.62 227.217 507.202C237.36 502.856 248.43 501.471 259.258 503.194C270.087 504.916 280.273 509.683 288.743 516.991L289.428 517.601C290.496 518.574 291.842 519.144 293.253 519.221C294.663 519.299 296.058 518.878 297.216 518.027C298.026 517.326 298.647 516.413 299.017 515.381C299.387 514.348 299.493 513.232 299.325 512.143C299.22 511.569 299.044 511.032 298.921 510.477C297.842 505.572 296.269 500.802 294.227 496.248C332.479 493.639 362.785 451.173 362.785 410.244C362.785 409.3 362.679 408.393 362.644 407.45C370.451 401.368 377.028 393.708 381.99 384.919C386.951 376.13 390.198 366.388 391.54 356.262C392.882 346.137 392.293 335.831 389.806 325.948C387.32 316.065 382.986 306.803 377.059 298.704C383.57 279.655 382.679 258.671 374.579 240.309C366.479 221.947 351.824 207.691 333.797 200.635C329.378 181.193 317.961 164.316 301.952 153.56C285.943 142.804 266.592 139.011 247.978 142.978C234.263 128.693 215.748 120.681 196.454 120.681C177.16 120.681 158.645 128.693 144.931 142.978C140.122 141.959 135.229 141.445 130.323 141.443C113.856 141.451 97.8723 147.298 84.9495 158.041C72.0266 168.783 62.9184 183.795 59.094 200.654C41.073 207.717 26.425 221.976 18.3291 240.336C10.2332 258.696 9.34249 279.676 15.8503 298.723C9.93941 306.826 5.62256 316.089 3.15215 325.969C0.681745 335.849 0.107354 346.148 1.46257 356.265C2.81778 366.381 6.07539 376.112 11.045 384.888C16.0145 393.664 22.5963 401.308 30.4055 407.375C30.4055 408.301 30.2649 409.226 30.2649 410.17C30.2649 451.099 60.5531 493.565 98.822 496.174C96.7963 500.734 95.2234 505.503 94.1285 510.403C94.023 510.958 93.8472 511.495 93.7418 512.069C93.5663 513.156 93.6674 514.274 94.0348 515.307C94.4022 516.341 95.0228 517.253 95.8336 517.953C96.9915 518.804 98.3862 519.225 99.7968 519.147C101.207 519.07 102.553 518.5 103.621 517.527L104.324 516.916C112.794 509.609 122.98 504.842 133.809 503.12C144.637 501.397 155.707 502.782 165.85 507.128H165.867ZM347.983 375.216C343.375 380.937 337.568 385.453 331.02 388.409L330.615 388.594C330.057 388.884 329.587 389.332 329.258 389.888C328.929 390.443 328.754 391.085 328.752 391.74C328.768 392.131 328.839 392.518 328.963 392.887L329.051 393.183C330.104 397.242 330.641 401.429 330.651 405.636C330.648 408.842 330.348 412.04 329.754 415.184C325.535 437.388 306.902 463.127 284.682 463.127C277.165 463.134 269.763 461.189 263.131 457.465C262.568 457.15 262.041 456.817 261.496 456.484C251.895 450.901 241.104 447.978 230.135 447.991C227.709 447.998 225.286 448.146 222.875 448.435C220.994 448.657 219.184 449.027 217.356 449.416L202.888 427.026L201.13 424.269C200.565 423.617 199.877 423.095 199.11 422.739C198.343 422.382 197.513 422.198 196.674 422.198C195.835 422.198 195.006 422.382 194.238 422.739C193.471 423.095 192.783 423.617 192.218 424.269L190.46 427.026L175.958 449.471C174.006 449.045 172.055 448.675 170.069 448.435C167.652 448.146 165.223 447.998 162.791 447.991C151.823 447.981 141.032 450.903 131.431 456.484C130.886 456.817 130.358 457.15 129.796 457.465C123.169 461.186 115.773 463.13 108.262 463.127C85.9719 463.127 67.3912 437.333 63.1899 415.184C61.7713 407.896 62.0062 400.358 63.8755 393.183L63.9634 392.887C64.1013 392.521 64.1786 392.133 64.1919 391.74C64.1889 391.083 64.0111 390.44 63.6786 389.884C63.3462 389.328 62.8724 388.881 62.3109 388.594L61.9066 388.409C54.6444 385.136 48.3122 379.937 43.5277 373.32C38.7432 366.703 35.6699 358.894 34.6074 350.654C33.545 342.414 34.5298 334.025 37.4658 326.305C40.4018 318.585 45.1886 311.797 51.3594 306.605L51.9746 306.087C52.5411 305.443 52.855 304.597 52.8536 303.719C52.8465 303.338 52.7751 302.962 52.6426 302.608C52.3086 302.109 51.9922 301.591 51.6582 301.054C47.4825 294.237 45.016 286.418 44.4891 278.326C43.9622 270.234 45.3919 262.133 48.645 254.781C51.898 247.428 56.8681 241.063 63.0912 236.28C69.3144 231.496 76.5876 228.451 84.2317 227.429H84.5305C85.3321 227.368 86.0863 227.006 86.6546 226.408C87.2229 225.81 87.5672 225.016 87.6244 224.172V223.598C87.701 211.055 92.3973 199.031 100.725 190.058C109.053 181.085 120.363 175.863 132.274 175.489H133.593C140.367 175.513 147.05 177.125 153.158 180.208L153.351 180.3C153.743 180.463 154.16 180.551 154.582 180.559C155.054 180.552 155.52 180.441 155.95 180.234C156.38 180.027 156.764 179.728 157.078 179.356C157.307 178.931 157.57 178.505 157.816 178.08C161.541 171.905 166.54 166.693 172.442 162.833C179.668 158.124 187.999 155.629 196.498 155.629C204.998 155.629 213.328 158.124 220.555 162.833C226.457 166.693 231.456 171.905 235.18 178.08C235.444 178.505 235.69 178.931 235.936 179.356C236.249 179.689 236.621 179.954 237.032 180.135C237.442 180.316 237.882 180.41 238.327 180.411C238.754 180.402 239.177 180.314 239.575 180.152L239.751 180.06C245.859 176.977 252.542 175.365 259.316 175.341H260.634C268.924 175.59 276.994 178.196 283.989 182.884C290.984 187.572 296.642 194.167 300.362 201.968C303.579 208.637 305.265 216.008 305.284 223.487V224.061C305.346 224.906 305.694 225.7 306.265 226.298C306.836 226.896 307.592 227.258 308.396 227.318H308.677C316.307 228.368 323.562 231.43 329.768 236.218C335.975 241.007 340.932 247.368 344.181 254.71C347.429 262.053 348.864 270.141 348.352 278.223C347.84 286.305 345.397 294.12 341.251 300.943C340.934 301.48 340.6 301.998 340.266 302.497C340.134 302.851 340.062 303.227 340.055 303.608C340.06 304.488 340.38 305.333 340.952 305.976L341.549 306.494C346.327 310.498 350.293 315.468 353.215 321.112C356.136 326.756 357.954 332.959 358.56 339.355C359.167 345.75 358.549 352.209 356.745 358.349C354.94 364.49 351.985 370.187 348.054 375.105L347.983 375.216Z" fill="white"/>
<path d="M-19.1329 330.52C-19.1329 285.702 -6.48616 241.89 17.208 204.625C40.9022 167.36 74.5796 138.316 113.982 121.165C153.384 104.014 196.74 99.526 238.569 108.27C280.398 117.013 318.82 138.595 348.977 170.286C379.134 201.977 399.671 242.354 407.992 286.311C416.312 330.268 412.042 375.831 395.721 417.237C379.4 458.644 351.762 494.035 316.301 518.934C280.84 543.834 239.149 557.124 196.501 557.124C139.311 557.124 84.4641 533.25 44.0249 490.753C3.58564 448.257 -19.1329 390.619 -19.1329 330.52ZM196.501 563.634C240.379 563.634 283.271 549.96 319.754 524.343C356.237 498.725 384.672 462.313 401.462 419.713C418.253 377.112 422.645 330.236 414.084 285.012C405.522 239.789 384.391 198.248 353.364 165.645C322.336 133.041 282.806 110.839 239.77 101.846C196.735 92.8524 152.129 97.4718 111.592 115.12C71.0551 132.768 36.4087 162.652 12.034 200.993C-12.3407 239.334 -25.3488 284.41 -25.3453 330.52C-25.3453 361.134 -19.6069 391.449 -8.45788 419.733C2.69116 448.017 19.0325 473.716 39.6331 495.363C60.2337 517.01 84.69 534.18 111.606 545.894C138.521 557.608 167.369 563.636 196.501 563.634Z" fill="white"/>
<path d="M-111.339 330.426C-111.339 266.444 -93.2847 203.898 -59.4589 150.699C-25.6331 97.4995 22.4449 56.0356 78.6951 31.5507C134.945 7.0657 196.842 0.659322 256.557 13.1417C316.271 25.624 371.123 56.4344 414.175 101.677C457.227 146.919 486.546 204.561 498.424 267.314C510.302 330.067 504.206 395.112 480.906 454.224C457.607 513.336 418.15 563.86 367.526 599.407C316.902 634.953 257.385 653.926 196.5 653.926C114.857 653.921 36.5601 619.837 -21.17 559.17C-78.9 498.503 -111.334 416.222 -111.339 330.426ZM196.5 661C258.699 661 319.502 641.618 371.219 605.306C422.937 568.993 463.247 517.381 487.053 456.994C510.859 396.607 517.091 330.159 504.962 266.05C492.833 201.941 462.887 143.052 418.91 96.8275C374.933 50.6033 318.902 19.1204 257.899 6.35965C196.897 -6.40113 133.664 0.133304 76.195 25.1367C18.7264 50.1401 -30.3966 92.4896 -64.9628 146.83C-99.529 201.171 -117.986 265.062 -118 330.426C-118.009 373.834 -109.881 416.819 -94.0802 456.926C-78.2793 497.032 -55.1148 533.475 -25.9099 564.173C3.29504 594.87 37.9684 619.221 76.1299 635.835C114.291 652.449 155.193 661 196.5 661Z" fill="white"/>
<path d="M-29.7388 330.555C-29.7388 283.52 -16.466 237.541 8.40093 198.433C33.2679 159.326 68.6121 128.845 109.964 110.848C151.316 92.8497 196.817 88.1425 240.715 97.3213C284.612 106.5 324.934 129.153 356.58 162.414C388.226 195.675 409.776 238.052 418.504 284.184C427.231 330.316 422.745 378.132 405.612 421.585C388.479 465.037 359.469 502.175 322.25 528.301C285.032 554.427 241.277 568.368 196.519 568.361C136.509 568.351 78.9591 543.292 36.5285 498.696C-5.9021 454.1 -29.7388 393.618 -29.7388 330.555ZM196.502 570.489C241.67 570.489 285.824 556.413 323.38 530.042C360.936 503.671 390.206 466.189 407.491 422.335C424.775 378.482 429.297 330.227 420.483 283.673C411.67 237.119 389.918 194.357 357.978 160.795C326.038 127.232 285.345 104.377 241.044 95.1188C196.743 85.8609 150.824 90.6161 109.095 108.783C67.3663 126.95 31.7008 157.713 6.60913 197.182C-18.4825 236.65 -31.8733 283.052 -31.8698 330.518C-31.8698 362.033 -25.9627 393.239 -14.4857 422.355C-3.00879 451.471 13.8132 477.926 35.0197 500.21C56.2261 522.493 81.4017 540.169 109.109 552.228C136.816 564.286 166.512 570.491 196.502 570.489Z" fill="white"/>
<path d="M-104.144 330.491C-104.144 267.998 -86.5093 206.908 -53.4696 154.948C-20.4299 102.987 26.5307 62.489 81.4734 38.5749C136.416 14.6607 196.873 8.40461 255.2 20.5977C313.526 32.7908 367.102 62.8855 409.152 107.076C451.202 151.266 479.837 207.568 491.437 268.86C503.036 330.153 497.08 393.684 474.319 451.418C451.559 509.153 413.018 558.499 363.569 593.216C314.12 627.932 255.986 646.46 196.516 646.457C116.775 646.452 40.3004 613.16 -16.0838 553.906C-72.4681 494.651 -104.144 414.287 -104.144 330.491ZM196.499 648.639C256.378 648.639 314.913 629.98 364.7 595.022C414.488 560.063 453.293 510.375 476.208 452.241C499.123 394.107 505.118 330.138 493.436 268.423C481.755 206.708 452.92 150.02 410.579 105.526C368.238 61.0322 314.292 30.7315 255.563 18.4557C196.835 6.17983 135.961 12.4802 80.6393 36.5601C25.3181 60.64 -21.9658 101.418 -55.233 153.737C-88.5002 206.056 -106.256 267.567 -106.256 330.491C-106.259 372.272 -98.4295 413.645 -83.2156 452.247C-68.0018 490.848 -45.7014 525.923 -17.5877 555.468C10.5259 585.012 43.9022 608.449 80.6353 624.438C117.368 640.428 156.739 648.658 196.499 648.658V648.639Z" fill="white"/>
<path d="M453.784 272.596C455.303 272.6 456.789 272.13 458.053 271.246C459.317 270.362 460.304 269.104 460.886 267.631C461.469 266.158 461.623 264.536 461.327 262.971C461.032 261.406 460.301 259.969 459.227 258.841C458.153 257.713 456.784 256.945 455.294 256.635C453.804 256.325 452.26 256.486 450.858 257.098C449.455 257.71 448.257 258.746 447.415 260.074C446.574 261.401 446.126 262.962 446.13 264.557C446.13 266.689 446.936 268.734 448.372 270.241C449.807 271.749 451.754 272.596 453.784 272.596ZM-59.7826 272.596C-58.2637 272.6 -56.7779 272.13 -55.5136 271.246C-54.2492 270.362 -53.2632 269.104 -52.6803 267.631C-52.0974 266.158 -51.944 264.536 -52.2395 262.971C-52.5349 261.406 -53.266 259.969 -54.34 258.841C-55.414 257.713 -56.7827 256.945 -58.2725 256.635C-59.7624 256.325 -61.3064 256.486 -62.709 257.098C-64.1116 257.71 -65.3097 258.746 -66.1513 260.074C-66.993 261.401 -67.4404 262.962 -67.4369 264.557C-67.4369 266.689 -66.6305 268.734 -65.195 270.241C-63.7595 271.749 -61.8126 272.596 -59.7826 272.596ZM-53.0982 324.034C-49.7119 324.164 -44.2798 324.683 -43.151 322.367H-42.9394L-43.3274 333.741C-43.6978 344.317 -53.0629 350.559 -67.7191 350.004C-82.3753 349.448 -92.1814 342.057 -91.8992 331.666L-91.4936 320.552H-91.2819C-88.8657 322.96 -85.3207 322.812 -80.982 322.979L-53.0982 324.034ZM-85.7969 327.535C-86.1884 328.613 -86.4031 329.753 -86.4318 330.907C-86.6787 337.816 -81.1408 344.206 -68.407 344.688C-55.6732 345.169 -48.883 340.853 -48.6184 333.111C-48.5836 331.677 -48.8111 330.25 -49.2886 328.906L-85.7969 327.535ZM-60.8055 393.625C-75.691 395.811 -87.5253 389.624 -88.7422 380.474C-89.9592 371.324 -80.594 362.192 -65.6203 359.988C-51.7578 357.969 -39.1651 363.84 -38.2304 373.546C-36.89 383.197 -47.6661 391.718 -60.8055 393.625ZM-64.3329 365.137C-74.5446 366.637 -84.4565 372.731 -83.5041 379.955C-82.5517 387.179 -73.892 390.217 -63.0101 388.624C-52.1282 387.031 -42.6219 381.215 -43.6096 374.028C-44.5973 366.841 -53.2569 363.526 -64.2799 365.137H-64.3329ZM-70.2765 414.427C-74.1918 415.797 -77.0137 416.724 -78.4423 419.817H-78.6363L-81.1231 412.019H-80.9115C-78.0014 413.593 -75.1971 412.612 -71.2818 411.241L-43.3979 401.498C-39.4826 400.127 -36.6783 399.145 -35.3026 396.107H-35.091L-33.0628 402.554C-33.6408 402.883 -34.16 403.315 -34.5972 403.832L-35.7965 404.943L-62.9925 432.357L-36.5372 423.096C-32.6219 421.725 -29.8176 420.799 -28.4596 417.724H-28.2479L-25.7964 425.485H-26.008C-28.8299 423.929 -31.6166 424.911 -35.5319 426.281L-74.7562 439.988C-74.0684 436.284 -72.1989 434.117 -68.8303 430.727L-43.2039 404.98L-70.2765 414.427ZM-19.9586 458.215V458.085C-19.0445 456.714 -18.511 455.103 -18.4176 453.432C-18.3241 451.76 -18.6745 450.095 -19.4295 448.62C-22.4454 442.119 -31.5107 440.6 -42.181 446.064C-52.8513 451.528 -58.4422 460.994 -55.3734 467.588C-54.4449 469.602 -53.0942 471.368 -51.4227 472.756L-41.8988 467.866C-38.8477 466.31 -35.6201 464.606 -35.285 462.124L-35.091 462.012L-32.128 468.403L-32.322 468.495C-33.3514 468.798 -34.3453 469.22 -35.285 469.755L-50.5056 477.553C-51.5349 477.997 -52.5067 478.576 -53.398 479.276C-56.0639 476.68 -58.3413 473.676 -60.1529 470.366C-65.1089 459.678 -58.7596 448.639 -45.4438 441.822C-31.2109 434.543 -18.9886 437.136 -14.3325 447.231C-13.3117 449.47 -12.6616 451.875 -12.41 454.344L-19.9586 458.215ZM-14.2972 471.811C-11.5106 469.773 -6.925 466.791 -7.24246 464.198L-7.06609 464.068L-0.857923 473.33C4.90932 481.999 1.01157 492.89 -10.9991 501.707C-23.0098 510.524 -35.0557 510.802 -40.7348 502.281L-46.8019 493.15L-46.6255 493.02C-43.3098 493.409 -40.5584 491.056 -36.9958 488.445L-14.2972 471.811ZM-38.3538 495.261C-38.0479 496.37 -37.5648 497.416 -36.9252 498.354C-33.1686 504.004 -25.0909 505.616 -14.6323 497.966C-4.17365 490.315 -1.22831 482.573 -5.44351 476.22C-6.2531 475.062 -7.25726 474.071 -8.40649 473.293L-38.3538 495.261ZM-5.00259 540.124C-6.75204 540.833 -8.66 540.994 -10.4947 540.586C-12.3294 540.178 -14.0119 539.22 -15.3378 537.827C-16.4684 536.515 -17.2315 534.9 -17.5427 533.161C-17.854 531.422 -17.7013 529.626 -17.1014 527.973C-15.6023 523.12 -11.9339 519.637 -8.07139 515.822L6.28498 501.689C8.70123 499.299 12.8459 495.669 12.3168 492.946L12.4755 492.779L18.2251 499.207L18.0664 499.373C15.5267 498.688 11.7877 502.744 9.37143 505.134L-4.98495 519.267C-12.0397 526.324 -13.8034 531.492 -10.664 534.993C-8.90032 536.845 -6.00789 537.586 -2.48052 536.216C-0.368344 535.309 1.51951 533.909 3.03981 532.122L19.2304 516.174C21.6467 513.784 25.756 510.135 25.2622 507.431L25.4209 507.283L31.1529 513.71L31.0294 513.895C28.4721 513.173 24.7155 517.248 22.211 519.674L2.05214 539.642C-0.364102 542.032 -4.45583 545.699 -3.94437 548.422L-4.10311 548.589L-8.54759 543.606L-5.00259 540.124ZM32.2817 529.14C34.3805 526.435 37.9607 522.212 37.0965 519.582L37.2376 519.397L43.8338 524.954L43.6927 525.139C41.1001 524.731 37.8725 529.362 35.7914 532.066L18.3309 554.757C16.1969 557.517 12.599 561.74 13.4808 564.371L13.3397 564.556L6.74354 558.999L6.88464 558.814C9.51253 559.166 12.7401 554.535 14.8212 551.83L32.2817 529.14ZM40.6415 536.438C43.9572 534.586 48.8956 532.604 47.9784 528.825L48.1195 528.658L54.3101 533.9L32.7402 545.014L27.4492 566.853C26.6494 569.873 26.5706 573.054 27.2199 576.114L27.0788 576.299L23.8513 573.539C23.0468 572.839 22.4441 571.916 22.1108 570.876C21.7774 569.835 21.7267 568.718 21.9641 567.649L28.0312 543.088L40.6415 536.438ZM66.0562 603.732C64.5218 597.286 63.9398 597.601 65.9151 589.747L72.9698 561.629C73.9928 557.424 75.4742 552.59 74.5571 549.219L74.663 548.996L80.4831 551.942C79.6801 553.607 79.0872 555.376 78.7194 557.202L69.901 592.637L86.6736 568.557C89.3721 564.685 92.2469 560.555 90.9417 557.443V557.239L96.5679 560.055C95.3295 562.365 94.4428 564.865 93.94 567.464L85.686 600.472L101.859 577.207C104.399 573.595 108.296 568.594 106.039 565.148L106.145 564.945L112.282 568.02L81.947 611.808C80.2891 605.566 79.8482 605.769 81.8059 597.916L88.3844 571.706L66.0562 603.732ZM141.736 602.528C137.644 617.717 127.485 626.608 119.02 624.107C110.554 621.607 106.339 608.937 110.448 593.674C114.258 579.522 124.558 569.761 133.376 572.78C142.265 575.355 145.351 589.136 141.736 602.528ZM115.475 594.47C112.67 604.899 113.993 616.865 120.677 618.847C127.362 620.829 133.499 613.716 136.551 602.621C139.602 591.525 138.314 580.078 131.63 578.096C124.946 576.114 118.508 583.19 115.475 594.47ZM180.202 587.765C180.747 586.247 181.125 584.668 181.33 583.06L188.932 583.875V584.116C187.838 584.542 187.309 586.728 187.168 588.506L186.339 626.608C186.339 630.312 186.339 632.368 187.803 634.702V634.943L179.32 634.017V633.795C180.942 633.109 181.436 630.831 181.701 628.238L182.847 590.858L168.65 633.887C166.882 630.941 165.834 627.581 165.598 624.107L160.678 588.487L155.016 621.273C154.205 625.922 153.57 629.275 155.475 631.127V631.35L148.314 630.572V630.349C150.431 627.701 151.066 623.959 151.842 619.828L157.521 587.858C157.909 585.728 158.702 582.69 156.868 580.56V580.319L164.558 581.152C164.501 582.339 164.589 583.528 164.822 584.69L169.743 619.532L180.202 587.765ZM207.645 627.682L213.288 628.33C216.234 628.664 219.197 626.886 221.26 623.385H221.384L219.849 633.591L201.436 634.48V634.258C203.641 632.757 203.112 627.034 202.971 623.57L201.683 594.47C201.525 590.914 201.542 585.209 199.232 583.894V583.672L213.341 582.986C214.1 582.986 214.858 582.986 215.405 582.505H215.528L215.934 591.544H215.793C215.317 590.537 214.546 589.717 213.594 589.203C212.642 588.69 211.558 588.511 210.502 588.691C208.982 588.724 207.474 588.979 206.022 589.451L206.657 603.843L211.948 603.584C212.631 603.645 213.313 603.448 213.87 603.028H213.994L214.347 611.215H214.223C213.412 608.992 211.56 609.159 210.202 609.233L206.939 609.381L207.645 627.682ZM238.333 621.255C239.056 625.533 239.55 628.664 242.248 630.516V630.738L234.558 632.202V631.961C236.446 629.164 235.934 626.126 235.193 621.847L229.902 591.47C229.179 587.191 228.65 584.153 225.987 582.208V581.986L232.336 580.782C232.554 581.454 232.882 582.081 233.306 582.634L234.188 584.042L256.164 616.216L251.19 587.339C250.449 583.079 249.973 580.022 247.275 578.17V577.948L254.929 576.485V576.725C253.059 579.43 253.589 582.486 254.329 586.746L261.684 629.479C258.28 628.256 256.499 625.978 253.835 622.07L233.218 591.766L238.333 621.255ZM263.289 573.743L265.229 573.15L269.356 588.098L267.398 588.691L263.289 573.743ZM293.942 572.372C292.856 571.348 291.54 570.632 290.117 570.292C288.694 569.951 287.212 569.998 285.811 570.428C283.448 571.372 281.049 574.132 282.883 579.152C286.499 589.043 300.644 583.171 305.529 596.545C308.351 604.269 306.358 613.364 299.921 615.957C297.318 617.023 294.484 617.306 291.737 616.772L287.293 608.214C291.084 610.919 295.3 611.919 298.527 610.567C300.189 609.688 301.453 608.156 302.044 606.304C302.635 604.451 302.506 602.428 301.684 600.676C297.575 589.414 284.047 597.156 278.509 581.838C275.194 572.743 279.25 567.13 284.277 565.167C286.42 564.299 288.733 563.994 291.014 564.278L293.942 572.372ZM356.605 578.244C356.951 580.181 356.751 582.181 356.03 584.001C355.31 585.82 354.1 587.379 352.549 588.487C351.115 589.407 349.467 589.894 347.787 589.894C346.107 589.894 344.459 589.407 343.025 588.487C338.757 586.024 336.164 581.615 333.325 576.911L322.743 559.499C320.979 556.572 318.316 551.627 315.688 551.664L315.564 551.479L322.619 546.718L322.743 546.922C321.631 549.404 324.753 554.016 326.534 556.943L337.117 574.373C342.408 583.042 346.94 585.69 350.767 583.097C352.866 581.708 354.066 578.781 353.431 574.892C352.966 572.541 352.002 570.331 350.609 568.427L338.686 548.811C336.923 545.866 334.224 540.957 331.632 540.976L331.508 540.772L338.563 536.03L338.704 536.197C337.557 538.716 340.679 543.328 342.496 546.311L357.452 570.909C359.215 573.836 361.896 578.744 364.507 578.707L364.63 578.911L359.145 582.616L356.605 578.244ZM374.313 558.388C377.011 561.666 378.916 564.037 382.179 564.241L382.32 564.408L376.429 569.798L376.27 569.612C376.552 566.186 374.612 563.852 371.914 560.592L352.637 537.271C349.921 534.011 347.998 531.714 344.806 531.492L344.665 531.325L349.533 526.88C350.057 527.325 350.655 527.664 351.297 527.88L352.725 528.64L387.258 544.495L368.951 522.268C366.235 519.008 364.348 516.711 361.12 516.489L360.979 516.322L366.852 510.969L366.993 511.135C366.711 514.47 368.651 516.822 371.35 520.082L398.404 552.979C394.877 553.738 392.249 552.757 388.016 550.775L355.565 535.79L374.313 558.388ZM380.856 510.95C378.369 508.542 374.612 504.467 372.037 505.208L371.879 505.06L377.575 498.577L377.734 498.743C377.276 501.429 381.455 505.115 383.889 507.468L404.313 527.25C406.764 529.621 410.521 533.641 413.131 532.937L413.29 533.104L407.593 539.568L407.435 539.42C407.964 536.771 403.766 533.085 401.332 530.733L380.856 510.95ZM404.524 485.555C400.997 481.239 397.135 476.164 393.942 477.312L393.766 477.164L397.717 471.607L431.227 513.395C426.659 513.858 425.583 514.34 420.151 511.747L392.055 498.317C388.528 496.65 384.736 494.52 381.561 494.613L381.385 494.465L385.265 489.037L385.935 489.63C387.919 490.91 389.995 492.025 392.143 492.964L421.985 507.301L404.524 485.555ZM441.474 481.61L445.001 476.96C446.765 474.534 447.012 470.959 445.301 467.236V467.125L452.673 473.978L443.59 490.742L443.414 490.612C443.414 487.87 438.528 485.259 435.636 483.518L411.562 468.977C408.634 467.125 404.101 464.143 401.755 465.458L401.562 465.347L408.616 452.38C408.987 451.714 409.498 451.102 409.339 450.306V450.176L416.817 454.696V454.825C415.744 454.7 414.661 454.945 413.732 455.523C412.803 456.101 412.078 456.981 411.667 458.03C410.871 459.384 410.276 460.858 409.904 462.401L421.791 469.588L424.401 464.791C424.736 464.247 424.897 463.604 424.86 462.957V462.827L431.632 466.921V467.051C429.428 466.569 428.563 468.292 427.893 469.551L426.271 472.533L441.474 481.61ZM418.546 430.616C420.891 424.892 426.906 423.911 433.061 426.689C439.216 429.467 442.355 434.784 442.197 438.859L456.976 438.247C461.191 438.005 465.35 437.119 469.322 435.617L467.717 439.544C466.8 441.804 465.336 442.823 462.303 442.971L449.957 443.545L438.793 443.174C439.375 439.47 438.493 434.283 432.126 431.412C427.258 429.227 423.308 430.579 422.355 433.524C422.044 434.549 421.832 435.604 421.72 436.673L452.056 450.361C455.16 451.769 460.01 454.251 462.109 452.64H462.32L458.969 460.79H458.775C458.44 458.067 453.308 456.104 450.274 454.714L424.736 443.193C421.632 441.785 416.8 439.266 414.63 440.859H414.419L418.546 430.616ZM438.793 397.719C437.361 397.995 436.02 398.65 434.896 399.623C433.773 400.595 432.904 401.852 432.373 403.276C431.65 405.814 432.285 409.5 437.17 411.019C446.835 414.056 451.033 398.701 464.102 402.794C471.65 405.165 477.294 412.352 475.336 419.298C474.554 422.111 473.039 424.639 470.962 426.596L461.774 425.115C466.112 423.633 469.41 420.688 470.398 417.224C470.751 415.301 470.364 413.31 469.323 411.686C468.282 410.061 466.671 408.936 464.842 408.555C453.837 405.11 451.474 421.021 436.5 416.353C427.682 413.556 425.918 406.758 427.382 401.331C428.04 399.024 429.213 396.916 430.803 395.181L438.793 397.719ZM443.414 384.253C440.08 383.567 434.86 382.141 433.061 384.253H432.832L434.472 375.621H434.701C435.636 378.177 441.033 379.029 444.295 379.715L471.527 385.401C474.772 386.087 479.992 387.457 481.809 385.401H482.021L480.38 394.051H480.169C479.305 391.495 473.89 390.662 470.645 389.976L443.414 384.253ZM475.813 357.95C480.01 358.209 482.867 358.432 485.284 356.098H485.513L485.019 365.359H484.825C483.555 362.951 478.176 362.914 474.86 362.71L442.056 360.766L441.826 364.841C441.761 365.95 441.971 367.059 442.434 368.059C442.898 369.058 443.6 369.915 444.472 370.546V370.675L435.777 368.49V368.342C436.09 367.816 436.3 367.231 436.394 366.619V365.452L437.329 348.17C437.439 347.422 437.302 346.658 436.941 346.003V345.873L445.618 347.874V348.003C444.736 348.11 443.925 348.562 443.346 349.269C442.768 349.977 442.464 350.887 442.497 351.819L442.267 355.987L475.813 357.95ZM476.165 324.46C480.574 324.109 482.779 323.942 485.319 321.349H485.548L486.201 330.369H485.971C483.978 328.239 479.216 328.943 475.76 329.221L464.878 330.073L445.812 339.334C442.655 340.835 440.31 341.965 438.546 344.336L438.246 340.112C438.109 339.377 438.207 338.615 438.527 337.944C438.846 337.274 439.367 336.734 440.01 336.408L458.652 327.498L444.542 322.83C442.655 322.201 439.04 321.404 437.241 324.146H437.206L436.624 316.051L464.631 325.313L476.165 324.46ZM-26.7664 209.192C-28.2773 208.296 -29.5029 206.951 -30.2897 205.327C-31.0765 203.703 -31.3897 201.871 -31.1899 200.061C-30.9901 198.251 -30.2863 196.543 -29.1666 195.151C-28.0469 193.759 -26.561 192.744 -24.895 192.235C-23.2291 191.726 -21.457 191.744 -19.8008 192.287C-18.1446 192.83 -16.6778 193.875 -15.5841 195.29C-14.4904 196.704 -13.8184 198.426 -13.6523 200.24C-13.4861 202.054 -13.8331 203.879 -14.6499 205.487C-15.2034 206.577 -15.9588 207.539 -16.8716 208.317C-17.7845 209.096 -18.8363 209.675 -19.9652 210.02C-21.0942 210.365 -22.2775 210.469 -23.4455 210.327C-24.6135 210.185 -25.7426 209.799 -26.7664 209.192ZM-27.1015 174.406L-28.1774 176.425L-33.8917 173.09C-34.5967 172.677 -35.3724 172.414 -36.1745 172.315C-36.9765 172.217 -37.7891 172.286 -38.5657 172.519C-39.3423 172.751 -40.0677 173.142 -40.7001 173.669C-41.3326 174.196 -41.8598 174.849 -42.2516 175.591L-54.9853 199.671L-59.2711 197.152L-42.2163 164.996L-49.7648 160.587L-71.5287 201.671L-57.525 209.859C-56.819 210.271 -56.0423 210.534 -55.2395 210.63C-54.4368 210.727 -53.6237 210.657 -52.8469 210.423C-52.0702 210.188 -51.3452 209.796 -50.7134 209.267C-50.0815 208.738 -49.5554 208.083 -49.1652 207.339L-36.5196 183.537L-32.9922 185.593L-49.9236 217.472L-42.3574 221.899L-37.2251 212.137C-35.4456 214.746 -33.0667 216.839 -30.3097 218.223C-27.5527 219.607 -24.5072 220.235 -21.4566 220.05C-18.4061 219.866 -15.4496 218.873 -12.8625 217.166C-10.2753 215.458 -8.14152 213.091 -6.65967 210.284C-5.17783 207.478 -4.3961 204.323 -4.38725 201.114C-4.3784 197.905 -5.14273 194.746 -6.60907 191.93C-8.07542 189.115 -10.1961 186.734 -12.7738 185.011C-15.3515 183.288 -18.3024 182.278 -21.3519 182.074L-19.5882 178.87C-19.1105 177.823 -19.0307 176.625 -19.3653 175.519C-19.6999 174.413 -20.4235 173.483 -21.3887 172.918C-22.3539 172.354 -23.4878 172.197 -24.5592 172.48C-25.6306 172.763 -26.5588 173.465 -27.1544 174.443L-27.1015 174.406ZM7.57248 124.43L1.43486 117.021L10.9235 108.297L5.22678 101.48L-11.5458 116.929L0.79993 131.747C2.15934 133.375 4.07836 134.369 6.13533 134.511C8.1923 134.654 10.219 133.933 11.77 132.507L29.9536 115.836L24.2569 109.019L7.57248 124.43Z" fill="white"/>
<path d="M18.0051 85.9988C17.5215 86.4457 17.1263 86.9891 16.8423 87.5978C16.5583 88.2065 16.391 88.8685 16.3501 89.5456C16.3092 90.2228 16.3955 90.9018 16.604 91.5437C16.8124 92.1855 17.139 92.7776 17.5649 93.2857L18.7445 94.7171L11.79 101.149L17.4769 108.008L24.5194 101.558L35.9283 115.444L43.2878 108.622L24.9244 86.4821C24.0662 85.4514 22.8562 84.8218 21.5593 84.7312C20.2624 84.6407 18.9843 85.0964 18.0051 85.9988ZM193.259 50.5308C192.216 49.6898 191.347 48.6327 190.705 47.4244C190.063 46.2161 189.662 44.882 189.526 43.5041V34.3211H201.586V25.2311H168.68V34.3211H179.737V43.2996C179.646 45.9624 178.587 48.4858 176.779 50.3449C175.479 51.4164 173.977 52.1814 172.373 52.5887C170.77 52.9959 169.102 53.0358 167.483 52.7057V61.833C170.575 62.6138 173.811 62.471 176.83 61.4205C179.85 60.3699 182.532 58.4531 184.579 55.8845C184.579 55.8845 190.477 64.2124 202.784 61.7028V52.7057C199.465 53.1858 196.093 52.4157 193.259 50.5308ZM220.795 28.0194H213.858V27.1086C213.858 25.738 213.342 24.4235 212.424 23.4544C211.507 22.4852 210.262 21.9408 208.964 21.9408C207.665 21.9408 206.42 22.4852 205.503 23.4544C204.585 24.4235 204.069 25.738 204.069 27.1086V83.4149H213.858V37.1095H220.795V28.0194ZM316.415 49.1366C315.217 48.6111 313.87 48.6075 312.67 49.1264C311.469 49.6453 310.512 50.6447 310.006 51.9064L309.672 52.7615L305.499 50.9026L305.834 50.0661C306.196 48.8337 306.109 47.5025 305.59 46.3344C305.07 45.1663 304.155 44.2459 303.025 43.7542C301.894 43.2624 300.631 43.235 299.483 43.6772C298.334 44.1194 297.384 44.9993 296.819 46.1438L287.382 69.7519L272.839 63.3015L279.635 46.1438L290.587 50.9955L293.932 42.6119L274.019 33.782L263.631 59.8068C263.212 60.8348 262.99 61.9405 262.978 63.0598C262.967 64.179 263.166 65.2895 263.564 66.327C263.962 67.3645 264.551 68.3082 265.297 69.1035C266.043 69.8989 266.931 70.5299 267.91 70.9602L284.055 78.117L276.149 97.9702L285.181 101.911L302.136 59.3049L306.291 61.1638L289.354 103.77L298.369 107.785L319.038 55.9031C319.287 55.2769 319.417 54.6052 319.42 53.9262C319.422 53.2472 319.298 52.5743 319.055 51.9459C318.811 51.3175 318.453 50.7459 318 50.2639C317.547 49.7819 317.008 49.3988 316.415 49.1366ZM403.144 119.255L398.619 114.923L399.2 114.236C399.632 113.73 399.966 113.139 400.181 112.497C400.396 111.854 400.489 111.173 400.454 110.493C400.419 109.813 400.257 109.147 399.977 108.533C399.697 107.919 399.305 107.37 398.823 106.916C398.342 106.463 397.78 106.115 397.171 105.891C396.561 105.668 395.916 105.574 395.272 105.615C394.627 105.656 393.997 105.831 393.418 106.13C392.838 106.429 392.32 106.846 391.893 107.358L372.21 130.724L379.534 137.602L392.862 121.764L397.422 126.04L403.144 119.255ZM47.9183 114.18C46.9983 113.097 45.7138 112.436 44.3388 112.339C42.9639 112.241 41.6074 112.715 40.5588 113.659L9.88855 142.045L15.5754 148.886L42.7948 123.697L52.4255 135.371L59.7849 128.549L47.9183 114.18ZM373.372 134.145C374.714 135.408 375.526 137.182 375.632 139.078C375.738 140.973 375.127 142.836 373.935 144.257L363.741 156.358L356.364 149.481L365.325 138.829L337.93 113.064L343.652 106.279L373.372 134.145ZM107.076 36.5146C106.472 36.7488 105.918 37.1062 105.445 37.5665C104.973 38.0268 104.59 38.5809 104.321 39.1972C104.051 39.8135 103.899 40.4799 103.873 41.1583C103.847 41.8367 103.948 42.5138 104.171 43.1509L105.121 45.9021L99.1879 48.2072C95.5844 46.3499 91.5327 45.6878 87.566 46.3082C83.5993 46.9285 79.9033 48.8021 76.9644 51.6826C74.0254 54.563 71.9812 58.3153 71.1006 62.4457C70.22 66.5762 70.5443 70.8914 72.0309 74.8236C73.5174 78.7557 76.0966 82.1207 79.429 84.4757C82.7614 86.8307 86.6909 88.0655 90.7007 88.0175C94.7104 87.9696 98.6125 86.6412 101.894 84.2071C105.175 81.773 107.681 78.3473 109.083 74.3806L114.365 72.3358L122.604 95.9997L131.795 92.4306L113.396 39.5818C113.175 38.9402 112.835 38.3513 112.396 37.8491C111.958 37.347 111.43 36.9416 110.842 36.6564C110.254 36.3712 109.619 36.2118 108.972 36.1874C108.326 36.1631 107.681 36.2743 107.076 36.5146ZM101.177 67.7629C100.989 70.3058 99.9905 72.7065 98.3455 74.5746C96.7005 76.4428 94.5054 77.6685 92.117 78.0524C89.7287 78.4364 87.2875 77.9561 85.1905 76.6896C83.0934 75.4231 81.4638 73.4449 80.5665 71.0766C79.6693 68.7083 79.5572 66.0892 80.2485 63.6451C80.9398 61.201 82.3938 59.0756 84.3741 57.6146C86.3544 56.1536 88.7446 55.4428 91.1561 55.5978C93.5675 55.7528 95.8583 56.7645 97.6562 58.4683L108.22 54.3602L111.495 63.6547L101.177 67.7629ZM383.214 97.6913L373.248 109.514C372.308 110.634 371.074 111.435 369.702 111.814C368.331 112.194 366.883 112.135 365.543 111.646C364.203 111.156 363.031 110.258 362.175 109.065C361.318 107.872 360.816 106.437 360.733 104.943C360.649 103.449 360.987 101.961 361.704 100.67C362.421 99.3784 363.484 98.3405 364.76 97.6875C366.036 97.0345 367.467 96.7958 368.871 97.0017C370.276 97.2075 371.591 97.8486 372.65 98.8438L374.71 100.703C375.219 101.181 375.887 101.425 376.567 101.384C377.247 101.342 377.883 101.017 378.337 100.48L382.21 95.8696C383.074 94.8441 383.516 93.4983 383.441 92.1283C383.365 90.7582 382.776 89.4761 381.805 88.5641C380.834 87.652 379.559 87.1846 378.262 87.2648C376.964 87.345 375.75 87.9662 374.886 88.9916L373.865 90.1999L363.019 80.0131L357.279 86.8167L359.674 89.0474C357.629 90.3482 355.873 92.0999 354.528 94.1827C353.183 96.2656 352.28 98.6306 351.88 101.116C351.481 103.601 351.594 106.149 352.212 108.583C352.831 111.018 353.94 113.283 355.464 115.224C356.988 117.165 358.891 118.735 361.043 119.828C363.195 120.92 365.544 121.51 367.932 121.555C370.319 121.601 372.687 121.102 374.875 120.092C377.063 119.082 379.018 117.585 380.608 115.704L390.274 104.235L383.214 97.6913ZM424.641 223.632L424.324 223.019L455.558 204.151C457.037 203.248 458.119 201.766 458.57 200.026C459.022 198.287 458.806 196.429 457.97 194.856L439.483 160.727L432.071 165.225L448.903 196.306L419.518 214.059L416.225 208.222L434.043 197.459C434.631 197.14 435.152 196.698 435.574 196.16C435.997 195.623 436.311 195 436.499 194.331C436.687 193.661 436.744 192.958 436.668 192.264C436.591 191.571 436.382 190.901 436.054 190.295C435.725 189.689 435.283 189.159 434.755 188.738C434.227 188.317 433.624 188.014 432.982 187.846C432.34 187.678 431.673 187.65 431.02 187.762C430.367 187.874 429.742 188.125 429.184 188.499L411.366 199.244L409.605 196.065L427.423 185.32C427.986 184.991 428.482 184.547 428.883 184.015C429.283 183.483 429.581 182.873 429.758 182.22C429.936 181.567 429.99 180.883 429.917 180.208C429.844 179.532 429.646 178.879 429.333 178.284C429.021 177.69 428.601 177.166 428.097 176.743C427.594 176.32 427.016 176.006 426.397 175.819C425.778 175.631 425.131 175.575 424.491 175.652C423.851 175.729 423.232 175.938 422.669 176.267L404.852 187.03L401.102 180.097L393.601 184.614L417.141 228.094C417.711 229.144 418.652 229.912 419.758 230.229C420.864 230.547 422.044 230.387 423.039 229.785C424.034 229.184 424.761 228.19 425.062 227.022C425.362 225.854 425.211 224.608 424.641 223.558V223.632Z" fill="white"/>
<path d="M238.259 311.302L300.898 270.161H238.259V311.302ZM238.259 353.362V382.613H154.74V311.302L92.1011 270.161H165.872V353.362H238.259Z" fill="white"/>
</g>
</svg>
