<svg width="173" height="21" viewBox="0 0 173 21" fill="none" xmlns="http://www.w3.org/2000/svg">
<g filter="url(#filter0_g_1_159)">
<path d="M2 2.67196C2.6577 2.50404 3.70276 2.36011 4.82851 2.36011C6.5918 2.36011 7.81036 2.86387 8.70209 3.8954C9.86416 5.21479 10.3685 7.37379 10.3685 10.3964C10.3685 13.419 9.71083 15.9378 8.45192 17.2572C7.54001 18.2408 6.24479 18.7445 4.28783 18.7445C3.3961 18.7445 2.52455 18.6246 2.00403 18.5526V2.67196H2ZM4.98184 15.6739C5.07868 15.7219 5.25219 15.7219 5.38937 15.7219C6.43443 15.7219 7.26967 14.2346 7.26967 10.2285C7.26967 7.22985 6.70881 5.31074 5.40955 5.31074C5.25622 5.31074 5.11903 5.31074 4.98184 5.38271V15.6739Z" fill="#E04A52" fill-opacity="0.3"/>
<path d="M19.9716 10.1562C19.9716 16.2734 18.1882 18.7922 15.5574 18.7922C12.2648 18.7922 11.2198 14.4742 11.2198 10.4681C11.2198 6.46191 12.5755 2.23987 15.7309 2.23987C19.2736 2.23987 19.9716 7.08562 19.9716 10.1562ZM14.3388 10.516C14.3388 14.3303 14.8997 15.5777 15.6542 15.5777C16.4693 15.5777 16.8566 13.6586 16.8566 10.3481C16.8566 7.5654 16.5459 5.45438 15.6381 5.45438C14.9037 5.45438 14.3388 6.96568 14.3388 10.516Z" fill="#E04A52" fill-opacity="0.3"/>
<path d="M21.5007 18.6007V2.43219H24.2324L26.0724 8.2375C26.4032 9.26902 27.0206 11.3081 27.3514 12.5555H27.3918C27.3151 11.2361 27.1013 8.09357 27.1013 5.04698V2.43219H29.7159V18.6007H26.9843L25.221 13.1552C24.8134 11.9078 24.2122 9.77279 23.9822 8.57335H23.9419C23.9984 9.9647 24.1154 12.6515 24.1154 15.818V18.6007H21.5007Z" fill="#E04A52" fill-opacity="0.3"/>
<path d="M39.517 18.1687C38.9561 18.4326 37.6569 18.7445 36.6522 18.7445C35.0059 18.7445 33.8438 18.1687 32.9924 17.1372C31.79 15.7219 31.209 13.275 31.2493 10.5643C31.326 4.8549 34.0779 2.28809 37.0597 2.28809C38.1249 2.28809 38.8996 2.55196 39.3072 2.79185L38.823 5.98238C38.4356 5.74249 37.9312 5.62254 37.33 5.62254C35.5668 5.62254 34.3684 7.03789 34.3684 10.9001C34.3684 14.3065 35.4538 15.6259 36.4585 15.6259C36.5755 15.6259 36.6925 15.6259 36.7894 15.5779V12.2915H35.8411V9.26885H39.521V18.1687H39.517Z" fill="#E04A52" fill-opacity="0.3"/>
<path d="M41.3735 2.67196C42.0312 2.50404 43.0762 2.36011 44.202 2.36011C45.9653 2.36011 47.1838 2.86387 48.0756 3.8954C49.2376 5.21479 49.742 7.37379 49.742 10.3964C49.742 13.419 49.0843 15.9378 47.8254 17.2572C46.9135 18.2408 45.6183 18.7445 43.6613 18.7445C42.7696 18.7445 41.898 18.6246 41.3775 18.5526V2.67196H41.3735ZM44.3553 15.6739C44.4522 15.7219 44.6257 15.7219 44.7628 15.7219C45.8079 15.7219 46.6431 14.2346 46.6431 10.2285C46.6431 7.22985 46.0823 5.31074 44.783 5.31074C44.6297 5.31074 44.4925 5.31074 44.3553 5.38271V15.6739Z" fill="#E04A52" fill-opacity="0.3"/>
<path d="M54.1759 2.43219V12.7954C54.1759 14.9304 54.6399 15.5541 55.1846 15.5541C55.7294 15.5541 56.1934 15.0743 56.1934 12.7954V2.43219H59.1954V12.1237C59.1954 16.2738 57.9768 18.7926 55.2048 18.7926C52.1463 18.7926 51.1779 16.1298 51.1779 12.0757V2.43219H54.1799H54.1759Z" fill="#E04A52" fill-opacity="0.3"/>
<path d="M61.3015 2.43219H64.2834V9.5329H64.3398C64.5134 8.83722 64.6869 8.11756 64.9007 7.3739L66.3331 2.43219H69.6257L66.8173 9.5329L69.6458 18.6007H66.3735L64.8039 12.3876L64.2793 13.611V18.6007H61.2975V2.43219H61.3015Z" fill="#E04A52" fill-opacity="0.3"/>
<path d="M73.7379 2.43219H76.7399V15.4582H79.9356V18.6007H73.7379V2.43219Z" fill="#E04A52" fill-opacity="0.3"/>
<path d="M84.3895 2.43219V18.6007H81.3875V2.43219H84.3895Z" fill="#E04A52" fill-opacity="0.3"/>
<path d="M86.5973 2.43219H89.5791V9.5329H89.6356C89.8091 8.83722 89.9826 8.11756 90.1965 7.3739L91.6289 2.43219H94.9214L92.1131 9.5329L94.9416 18.6007H91.6693L90.0997 12.3876L89.5751 13.611V18.6007H86.5933V2.43219H86.5973Z" fill="#E04A52" fill-opacity="0.3"/>
<path d="M101.781 11.7399H98.9326V15.3862H102.128V18.6007H95.9305V2.43219H101.914V5.6467H98.9326V8.6693H101.781V11.7399Z" fill="#E04A52" fill-opacity="0.3"/>
<path d="M103.911 2.43219H106.913V15.4582H110.109V18.6007H103.911V2.43219Z" fill="#E04A52" fill-opacity="0.3"/>
<path d="M114.563 2.43219V18.6007H111.561V2.43219H114.563Z" fill="#E04A52" fill-opacity="0.3"/>
<path d="M124.849 10.1562C124.849 16.2734 123.066 18.7922 120.431 18.7922C117.138 18.7922 116.093 14.4742 116.093 10.4681C116.093 6.46191 117.449 2.23987 120.608 2.23987C124.151 2.23987 124.849 7.08562 124.849 10.1562ZM119.212 10.516C119.212 14.3303 119.773 15.5777 120.528 15.5777C121.343 15.5777 121.73 13.6586 121.73 10.3481C121.73 7.5654 121.419 5.45438 120.512 5.45438C119.777 5.45438 119.212 6.96568 119.212 10.516Z" fill="#E04A52" fill-opacity="0.3"/>
<path d="M126.378 18.6007V2.43219H129.11L130.95 8.2375C131.28 9.26902 131.898 11.3081 132.229 12.5555H132.269C132.192 11.2361 131.978 8.09357 131.978 5.04698V2.43219H134.593V18.6007H131.861L130.098 13.1552C129.691 11.9078 129.089 9.77279 128.859 8.57335H128.819C128.876 9.9647 128.993 12.6515 128.993 15.818V18.6007H126.378Z" fill="#E04A52" fill-opacity="0.3"/>
<path d="M142.183 6.4381H142.142L139.992 7.7335L139.507 4.83085L142.489 3.00769H145.144V18.6005H142.183V6.4381Z" fill="#E04A52" fill-opacity="0.3"/>
<path d="M151.923 18.6005V15.1221H147.545V12.5793L151.673 3.00769H154.558V12.1714H155.76V15.1221H154.558V18.6005H151.923ZM151.923 12.1714V9.50868C151.923 8.78901 151.999 7.90142 152.06 7.15777H152.004C151.769 7.85345 151.519 8.54912 151.188 9.36475L150.026 12.1235V12.1714H151.927H151.923Z" fill="#E04A52" fill-opacity="0.3"/>
<path d="M160.308 3.60724V6.79776H162.188V9.38856H160.308V14.0904C160.308 15.3858 160.772 15.6976 161.256 15.6976C161.507 15.6976 161.7 15.6736 161.954 15.6257V18.5283C161.567 18.6483 160.946 18.7442 160.211 18.7442C159.416 18.7442 158.718 18.5283 158.218 17.9766C157.637 17.3289 157.306 16.3693 157.306 14.4262V9.38856H156.201V6.79776H157.306V4.44685L160.308 3.60724Z" fill="#E04A52" fill-opacity="0.3"/>
<path d="M163.309 2H166.311V8.02121H166.352C166.586 7.6134 166.856 7.30154 167.183 7.03767C167.55 6.77379 168.034 6.60587 168.482 6.60587C170.459 6.60587 171 8.74088 171 11.7395V18.6003H167.998V11.6195C167.998 10.612 167.861 9.72442 167.203 9.72442C166.892 9.72442 166.602 9.89234 166.428 10.5161C166.388 10.684 166.311 11.1398 166.311 11.4036V18.6003H163.309V2Z" fill="#E04A52" fill-opacity="0.3"/>
</g>
<defs>
<filter id="filter0_g_1_159" x="0" y="0" width="173" height="20.7926" filterUnits="userSpaceOnUse" color-interpolation-filters="sRGB">
<feFlood flood-opacity="0" result="BackgroundImageFix"/>
<feBlend mode="normal" in="SourceGraphic" in2="BackgroundImageFix" result="shape"/>
<feTurbulence type="fractalNoise" baseFrequency="0.99900001287460327 0.99900001287460327" numOctaves="3" seed="4996" />
<feDisplacementMap in="shape" scale="4" xChannelSelector="R" yChannelSelector="G" result="displacedImage" width="100%" height="100%" />
<feMerge result="effect1_texture_1_159">
<feMergeNode in="displacedImage"/>
</feMerge>
</filter>
</defs>
</svg>
