<svg width="538" height="538" viewBox="0 0 538 538" fill="none" xmlns="http://www.w3.org/2000/svg">
<path d="M242.804 412.761C250.744 415.993 257.771 421.128 263.267 427.716C264.064 428.664 264.771 429.658 265.553 430.728C266.506 431.506 267.692 431.94 268.921 431.963C270.428 431.922 271.86 431.289 272.905 430.201L273.041 430.005C278.755 422.358 286.443 416.417 295.278 412.821C303.954 409.283 313.422 408.156 322.684 409.558C331.946 410.96 340.658 414.84 347.903 420.788L348.489 421.285C349.402 422.077 350.553 422.541 351.76 422.604C352.966 422.666 354.159 422.324 355.15 421.631C355.842 421.061 356.373 420.318 356.69 419.478C357.007 418.638 357.098 417.729 356.954 416.842C356.864 416.375 356.713 415.938 356.608 415.487C355.685 411.494 354.34 407.612 352.594 403.905C385.311 401.782 411.232 367.218 411.232 333.905C411.232 333.137 411.142 332.399 411.112 331.63C417.79 326.68 423.415 320.446 427.659 313.293C431.903 306.139 434.68 298.21 435.828 289.968C436.976 281.727 436.472 273.339 434.345 265.295C432.218 257.251 428.511 249.713 423.441 243.121C429.011 227.616 428.249 210.537 421.321 195.592C414.393 180.647 401.858 169.043 386.439 163.301C382.659 147.476 372.894 133.739 359.201 124.985C345.508 116.231 328.956 113.143 313.035 116.373C301.305 104.746 285.469 98.2241 268.966 98.2241C252.463 98.2241 236.627 104.746 224.897 116.373C220.783 115.543 216.598 115.124 212.402 115.123C198.318 115.13 184.646 119.889 173.593 128.632C162.54 137.376 154.749 149.594 151.478 163.316C136.064 169.064 123.535 180.67 116.611 195.613C109.686 210.557 108.924 227.633 114.491 243.136C109.435 249.731 105.742 257.27 103.629 265.312C101.516 273.354 101.025 281.736 102.184 289.97C103.343 298.204 106.13 306.124 110.38 313.267C114.631 320.41 120.261 326.632 126.94 331.57C126.94 332.323 126.82 333.076 126.82 333.844C126.82 367.158 152.726 401.721 185.458 403.845C183.726 407.557 182.38 411.438 181.444 415.426C181.354 415.878 181.203 416.315 181.113 416.782C180.963 417.667 181.05 418.577 181.364 419.418C181.678 420.259 182.209 421.002 182.902 421.571C183.893 422.264 185.086 422.606 186.292 422.543C187.499 422.481 188.65 422.017 189.563 421.225L190.165 420.728C197.409 414.78 206.121 410.9 215.383 409.498C224.645 408.096 234.113 409.223 242.789 412.761H242.804ZM398.572 305.395C394.631 310.052 389.664 313.727 384.063 316.133L383.717 316.284C383.24 316.52 382.838 316.884 382.556 317.337C382.275 317.789 382.125 318.311 382.124 318.844C382.137 319.163 382.198 319.477 382.304 319.778L382.379 320.019C383.279 323.322 383.74 326.73 383.747 330.155C383.745 332.764 383.489 335.367 382.981 337.926C379.372 355.998 363.434 376.947 344.429 376.947C338 376.953 331.668 375.37 325.996 372.339C325.515 372.083 325.064 371.812 324.597 371.54C316.386 366.996 307.156 364.618 297.774 364.628C295.699 364.634 293.626 364.754 291.564 364.989C289.956 365.17 288.407 365.471 286.843 365.787L274.469 347.564L272.965 345.32C272.482 344.789 271.893 344.365 271.237 344.075C270.581 343.784 269.871 343.634 269.154 343.634C268.436 343.634 267.727 343.784 267.071 344.075C266.414 344.365 265.826 344.789 265.342 345.32L263.839 347.564L251.434 365.833C249.766 365.486 248.097 365.185 246.398 364.989C244.331 364.754 242.253 364.634 240.173 364.628C230.792 364.62 221.562 366.998 213.349 371.54C212.883 371.812 212.432 372.083 211.951 372.339C206.283 375.367 199.957 376.95 193.532 376.947C174.467 376.947 158.575 355.953 154.981 337.926C153.768 331.994 153.969 325.859 155.568 320.019L155.643 319.778C155.761 319.48 155.827 319.164 155.838 318.844C155.836 318.31 155.684 317.786 155.399 317.334C155.115 316.881 154.71 316.518 154.23 316.284L153.884 316.133C147.672 313.469 142.256 309.238 138.164 303.852C134.071 298.466 131.443 292.11 130.534 285.403C129.625 278.697 130.468 271.869 132.979 265.585C135.49 259.302 139.584 253.778 144.862 249.552L145.389 249.13C145.873 248.605 146.142 247.917 146.14 247.202C146.134 246.893 146.073 246.587 145.96 246.298C145.674 245.892 145.404 245.47 145.118 245.033C141.546 239.485 139.437 233.121 138.986 226.534C138.535 219.948 139.758 213.355 142.541 207.371C145.323 201.386 149.574 196.205 154.897 192.312C160.22 188.419 166.441 185.941 172.979 185.108H173.234C173.92 185.059 174.565 184.764 175.051 184.277C175.537 183.79 175.832 183.144 175.881 182.458V181.991C175.946 171.781 179.963 161.995 187.086 154.692C194.209 147.389 203.883 143.138 214.071 142.834H215.199C220.992 142.853 226.709 144.165 231.933 146.674L232.099 146.749C232.434 146.882 232.791 146.954 233.151 146.96C233.555 146.954 233.954 146.864 234.321 146.696C234.689 146.527 235.018 146.284 235.286 145.981C235.482 145.635 235.707 145.289 235.918 144.942C239.103 139.916 243.379 135.674 248.427 132.532C254.608 128.7 261.734 126.669 269.003 126.669C276.273 126.669 283.399 128.7 289.58 132.532C294.628 135.674 298.904 139.916 302.089 144.942C302.315 145.289 302.525 145.635 302.736 145.981C303.003 146.252 303.322 146.468 303.673 146.615C304.024 146.762 304.4 146.839 304.781 146.84C305.146 146.832 305.507 146.761 305.848 146.629L305.998 146.554C311.223 144.044 316.939 142.732 322.733 142.713H323.861C330.951 142.915 337.853 145.037 343.836 148.853C349.819 152.668 354.659 158.036 357.841 164.385C360.592 169.814 362.034 175.813 362.051 181.9V182.367C362.103 183.055 362.401 183.702 362.89 184.188C363.378 184.675 364.025 184.969 364.712 185.018H364.953C371.479 185.873 377.684 188.365 382.993 192.262C388.301 196.16 392.541 201.337 395.32 207.313C398.099 213.29 399.326 219.872 398.888 226.45C398.45 233.028 396.36 239.389 392.814 244.943C392.543 245.38 392.257 245.801 391.972 246.208C391.859 246.496 391.797 246.802 391.791 247.112C391.796 247.828 392.07 248.516 392.558 249.039L393.069 249.461C397.155 252.72 400.548 256.765 403.047 261.359C405.546 265.953 407.101 271.001 407.619 276.207C408.138 281.412 407.61 286.669 406.066 291.667C404.523 296.665 401.995 301.302 398.633 305.305L398.572 305.395Z" fill="#912642"/>
<path d="M84.5627 269.015C84.5627 232.537 95.3797 196.878 115.646 166.547C135.912 136.217 164.717 112.577 198.419 98.6173C232.12 84.6577 269.205 81.0052 304.982 88.1217C340.759 95.2383 373.623 112.804 399.417 138.598C425.211 164.392 442.777 197.256 449.893 233.033C457.01 268.811 453.358 305.895 439.398 339.596C425.438 373.298 401.798 402.103 371.468 422.369C341.137 442.636 305.478 453.453 269 453.453C220.084 453.453 173.172 434.021 138.583 399.432C103.994 364.843 84.5627 317.931 84.5627 269.015ZM269 458.751C306.53 458.751 343.217 447.622 374.422 426.771C405.626 405.92 429.947 376.285 444.309 341.611C458.67 306.938 462.427 268.784 455.104 231.976C447.781 195.167 429.708 161.357 403.169 134.821C376.63 108.284 342.818 90.2132 306.009 82.8933C269.2 75.5734 231.047 79.3333 196.375 93.6974C161.703 108.061 132.069 132.385 111.22 163.591C90.3722 194.797 79.246 231.485 79.249 269.015C79.249 293.933 84.1572 318.607 93.6933 341.627C103.229 364.648 117.207 385.565 134.827 403.184C152.447 420.803 173.365 434.778 196.387 444.313C219.408 453.847 244.082 458.753 269 458.751Z" fill="#912642"/>
<path d="M5.69711 268.94C5.69711 216.863 21.1396 165.956 50.0716 122.657C79.0037 79.3566 120.126 45.6084 168.238 25.6797C216.351 5.75091 269.292 0.536634 320.368 10.6962C371.444 20.8558 418.36 45.933 455.183 82.7565C492.007 119.58 517.084 166.496 527.243 217.572C537.403 268.648 532.189 321.589 512.26 369.701C492.331 417.814 458.583 458.936 415.283 487.868C371.983 516.8 321.076 532.243 269 532.243C199.169 532.239 132.199 504.497 82.8211 455.119C33.4431 405.741 5.70111 338.771 5.69711 268.94ZM269 538C322.201 538 374.206 522.225 418.442 492.669C462.677 463.114 497.156 421.106 517.518 371.956C537.879 322.806 543.21 268.722 532.836 216.543C522.461 164.364 496.847 116.432 459.233 78.8097C421.619 41.187 373.693 15.5625 321.516 5.17623C269.339 -5.21 215.254 0.108498 166.1 20.4592C116.946 40.8099 74.9293 75.279 45.364 119.508C15.7986 163.737 0.0119298 215.739 6.75621e-06 268.94C-0.00791136 304.27 6.94414 339.257 20.4591 371.9C33.9741 404.544 53.7872 434.205 78.7669 459.19C103.747 484.176 133.404 503.996 166.044 517.518C198.685 531.04 233.669 538 269 538Z" fill="#912642"/>
<path d="M75.4907 269.045C75.4907 230.763 86.8432 193.34 108.113 161.509C129.382 129.679 159.613 104.87 194.982 90.2215C230.351 75.5727 269.27 71.7414 306.817 79.2122C344.363 86.683 378.851 105.12 405.919 132.192C432.987 159.264 451.419 193.755 458.884 231.303C466.349 268.851 462.512 307.769 447.857 343.136C433.203 378.503 408.39 408.73 376.556 429.995C344.722 451.259 307.298 462.606 269.015 462.6C217.686 462.592 168.463 442.196 132.171 405.898C95.8788 369.601 75.4907 320.374 75.4907 269.045ZM269 464.332C307.634 464.332 345.4 452.876 377.522 431.412C409.645 409.948 434.681 379.44 449.464 343.747C464.248 308.054 468.116 268.778 460.577 230.887C453.039 192.996 434.434 158.191 407.115 130.874C379.796 103.557 344.99 84.9548 307.098 77.4196C269.206 69.8844 229.931 73.7547 194.239 88.5413C158.547 103.328 128.042 128.366 106.58 160.49C85.1185 192.615 73.665 230.382 73.668 269.015C73.668 294.666 78.7205 320.065 88.537 343.763C98.3536 367.461 112.742 388.993 130.88 407.13C149.019 425.267 170.552 439.654 194.251 449.469C217.949 459.283 243.349 464.334 269 464.332Z" fill="#912642"/>
<path d="M11.8523 268.993C11.8523 218.128 26.9359 168.407 55.1956 126.115C83.4553 83.8231 123.622 50.8609 170.616 31.3967C217.61 11.9326 269.32 6.84063 319.208 16.7648C369.096 26.689 414.921 51.1836 450.888 87.151C486.854 123.118 511.346 168.943 521.268 218.83C531.19 268.717 526.094 320.426 506.627 367.418C487.16 414.409 454.194 454.573 411.899 482.829C369.605 511.086 319.881 526.166 269.015 526.163C200.81 526.159 135.4 499.062 87.1726 450.834C38.9457 402.606 11.8523 337.196 11.8523 268.993ZM269 527.939C320.216 527.939 370.282 512.752 412.867 484.299C455.452 455.845 488.643 415.403 508.243 368.087C527.842 320.771 532.97 268.705 522.979 218.475C512.987 168.244 488.324 122.104 452.108 85.8895C415.893 49.6752 369.752 25.0129 319.519 15.0214C269.287 5.02984 217.22 10.1579 169.902 29.7569C122.585 49.356 82.1416 82.5458 53.6873 125.129C25.2331 167.713 10.0457 217.778 10.0457 268.993C10.0437 302.999 16.7403 336.673 29.7531 368.092C42.7658 399.51 61.84 428.058 85.8863 452.105C109.933 476.152 138.48 495.228 169.899 508.242C201.318 521.256 234.992 527.954 269 527.954V527.939Z" fill="#912642"/>
<path d="M489.066 221.872C490.365 221.875 491.636 221.492 492.717 220.773C493.799 220.053 494.642 219.029 495.141 217.83C495.639 216.631 495.77 215.311 495.518 214.038C495.265 212.764 494.64 211.594 493.721 210.676C492.802 209.758 491.632 209.133 490.358 208.881C489.083 208.628 487.763 208.759 486.563 209.257C485.363 209.756 484.338 210.599 483.619 211.679C482.899 212.76 482.516 214.03 482.519 215.329C482.519 217.064 483.209 218.728 484.437 219.955C485.664 221.182 487.33 221.872 489.066 221.872ZM49.799 221.872C51.0982 221.875 52.3689 221.492 53.4504 220.773C54.5318 220.053 55.3752 219.029 55.8738 217.83C56.3723 216.631 56.5035 215.311 56.2508 214.038C55.9981 212.764 55.3728 211.594 54.4542 210.676C53.5355 209.758 52.3649 209.133 51.0906 208.881C49.8163 208.628 48.4956 208.759 47.2959 209.257C46.0963 209.756 45.0716 210.599 44.3516 211.679C43.6317 212.76 43.249 214.03 43.252 215.329C43.252 217.064 43.9418 218.728 45.1696 219.955C46.3974 221.182 48.0626 221.872 49.799 221.872ZM55.5163 263.738C58.4127 263.844 63.0589 264.266 64.0244 262.381H64.2054L63.8735 271.638C63.5568 280.247 55.5465 285.327 43.0107 284.875C30.4748 284.423 22.0874 278.407 22.3288 269.95L22.6758 260.904H22.8568C24.9235 262.864 27.9556 262.743 31.6666 262.879L55.5163 263.738ZM27.5483 266.588C27.2134 267.465 27.0298 268.393 27.0052 269.332C26.794 274.955 31.5308 280.156 42.4223 280.548C53.3139 280.94 59.1217 277.427 59.348 271.126C59.3778 269.959 59.1832 268.797 58.7747 267.703L27.5483 266.588ZM48.9241 320.38C36.1921 322.159 26.0699 317.123 25.0291 309.675C23.9882 302.228 31.9984 294.795 44.8058 293.001C56.6628 291.358 67.4337 296.137 68.2332 304.037C69.3797 311.892 60.1626 318.827 48.9241 320.38ZM45.907 297.192C37.1727 298.414 28.6948 303.374 29.5094 309.253C30.324 315.133 37.7308 317.606 47.0384 316.309C56.346 315.012 64.477 310.279 63.6322 304.429C62.7874 298.579 55.3806 295.881 45.9523 297.192H45.907ZM40.8233 337.31C37.4744 338.426 35.0607 339.18 33.8388 341.697H33.6729L31.5459 335.35H31.7269C34.216 336.632 36.6145 335.833 39.9634 334.717L63.8132 326.787C67.1621 325.671 69.5607 324.872 70.7373 322.4H70.9183L72.6531 327.646C72.1587 327.915 71.7146 328.267 71.3407 328.687L70.3149 329.591L47.0535 351.904L69.6814 344.366C73.0303 343.25 75.4288 342.496 76.5904 339.994H76.7714L78.8683 346.311H78.6872C76.2736 345.044 73.8901 345.843 70.5412 346.959L36.9917 358.115C37.58 355.1 39.179 353.336 42.0603 350.577L63.9791 329.621L40.8233 337.31ZM83.8615 372.95V372.845C84.6434 371.729 85.0997 370.417 85.1796 369.057C85.2595 367.697 84.9598 366.341 84.314 365.141C81.7345 359.849 73.9806 358.613 64.8541 363.06C55.7275 367.508 50.9455 375.212 53.5703 380.579C54.3645 382.218 55.5198 383.656 56.9494 384.785L65.0954 380.805C67.7052 379.539 70.4658 378.152 70.7524 376.131L70.9183 376.041L73.4527 381.242L73.2867 381.318C72.4063 381.564 71.5562 381.908 70.7524 382.343L57.7339 388.69C56.8535 389.051 56.0222 389.523 55.2599 390.092C52.9797 387.979 51.0318 385.534 49.4822 382.84C45.2433 374.141 50.674 365.156 62.0633 359.608C74.2371 353.683 84.6912 355.794 88.6737 364.01C89.5468 365.833 90.1028 367.79 90.318 369.799L83.8615 372.95ZM88.7038 384.016C91.0873 382.358 95.0095 379.931 94.7379 377.82L94.8888 377.714L100.199 385.253C105.132 392.308 101.798 401.173 91.5248 408.349C81.2517 415.526 70.9485 415.752 66.0911 408.817L60.9018 401.384L61.0526 401.279C63.8886 401.595 66.2419 399.68 69.2891 397.555L88.7038 384.016ZM68.1276 403.103C68.3892 404.005 68.8024 404.856 69.3495 405.62C72.5626 410.219 79.4717 411.53 88.4172 405.304C97.3628 399.077 99.882 392.776 96.2766 387.604C95.5842 386.663 94.7253 385.855 93.7423 385.222L68.1276 403.103ZM96.6538 439.617C95.1574 440.195 93.5255 440.326 91.9562 439.994C90.3869 439.662 88.9479 438.882 87.8138 437.748C86.8468 436.68 86.1941 435.366 85.9278 433.95C85.6616 432.535 85.7922 431.073 86.3053 429.727C87.5875 425.777 90.7253 422.943 94.0289 419.837L106.308 408.334C108.375 406.389 111.92 403.434 111.467 401.218L111.603 401.083L116.521 406.314L116.385 406.45C114.213 405.892 111.015 409.194 108.948 411.138L96.6688 422.642C90.6347 428.386 89.1262 432.592 91.8114 435.441C93.3199 436.949 95.7939 437.552 98.8109 436.436C100.618 435.698 102.232 434.559 103.533 433.104L117.381 420.124C119.448 418.179 122.962 415.209 122.54 413.008L122.676 412.887L127.578 418.119L127.473 418.269C125.286 417.681 122.072 420.998 119.93 422.973L102.688 439.225C100.621 441.17 97.1214 444.155 97.5589 446.372L97.4231 446.507L93.6216 442.452L96.6538 439.617ZM128.544 430.677C130.339 428.476 133.401 425.039 132.662 422.898L132.783 422.747L138.425 427.27L138.304 427.421C136.087 427.089 133.326 430.858 131.546 433.059L116.612 451.528C114.786 453.774 111.709 457.211 112.463 459.352L112.342 459.503L106.701 454.98L106.821 454.829C109.069 455.116 111.83 451.347 113.61 449.146L128.544 430.677ZM135.694 436.617C138.53 435.11 142.754 433.496 141.97 430.421L142.09 430.285L147.385 434.552L128.936 443.597L124.411 461.372C123.726 463.831 123.659 466.42 124.214 468.91L124.094 469.061L121.333 466.815C120.645 466.244 120.13 465.494 119.845 464.647C119.559 463.8 119.516 462.891 119.719 462.021L124.908 442.03L135.694 436.617ZM157.432 491.389C156.12 486.143 155.622 486.399 157.311 480.007L163.346 457.121C164.221 453.699 165.488 449.764 164.703 447.02L164.794 446.839L169.772 449.236C169.085 450.592 168.578 452.031 168.263 453.518L160.721 482.358L175.067 462.759C177.375 459.608 179.834 456.246 178.717 453.714V453.548L183.53 455.839C182.47 457.72 181.712 459.755 181.282 461.87L174.222 488.736L188.055 469.8C190.227 466.86 193.561 462.79 191.63 459.985L191.721 459.82L196.971 462.322L171.024 497.962C169.606 492.882 169.229 493.047 170.903 486.655L176.53 465.322L157.432 491.389ZM222.163 490.409C218.663 502.772 209.974 510.008 202.733 507.973C195.492 505.938 191.887 495.626 195.402 483.203C198.66 471.684 207.47 463.739 215.013 466.197C222.615 468.292 225.255 479.509 222.163 490.409ZM199.701 483.851C197.302 492.339 198.434 502.078 204.151 503.691C209.868 505.304 215.118 499.515 217.728 490.485C220.338 481.454 219.236 472.137 213.519 470.524C207.802 468.91 202.296 474.67 199.701 483.851ZM255.064 478.393C255.53 477.158 255.854 475.873 256.029 474.564L262.531 475.227V475.423C261.596 475.77 261.143 477.549 261.022 478.996L260.313 510.008C260.313 513.023 260.313 514.697 261.566 516.597V516.793L254.31 516.039V515.858C255.697 515.3 256.12 513.446 256.346 511.335L257.327 480.911L245.183 515.933C243.671 513.535 242.775 510.8 242.573 507.973L238.364 478.981L233.522 505.666C232.828 509.45 232.285 512.179 233.914 513.687V513.868L227.79 513.235V513.054C229.6 510.898 230.143 507.852 230.807 504.49L235.664 478.469C235.996 476.735 236.675 474.263 235.106 472.529V472.333L241.683 473.011C241.634 473.977 241.71 474.945 241.909 475.891L246.118 504.249L255.064 478.393ZM278.536 510.883L283.364 511.41C285.883 511.682 288.417 510.234 290.182 507.385H290.288L288.975 515.692L273.226 516.416V516.235C275.112 515.014 274.66 510.355 274.539 507.536L273.438 483.851C273.302 480.956 273.317 476.313 271.341 475.242V475.062L283.409 474.504C284.058 474.504 284.706 474.504 285.174 474.112H285.28L285.626 481.469H285.506C285.099 480.65 284.44 479.982 283.625 479.564C282.811 479.146 281.884 479 280.98 479.147C279.68 479.174 278.391 479.382 277.149 479.765L277.692 491.48L282.217 491.269C282.802 491.319 283.385 491.158 283.862 490.816H283.967L284.269 497.48H284.163C283.469 495.671 281.885 495.806 280.724 495.867L277.933 495.987L278.536 510.883ZM304.785 505.651C305.403 509.134 305.826 511.682 308.134 513.189V513.37L301.557 514.561V514.365C303.171 512.089 302.733 509.616 302.1 506.134L297.574 481.409C296.956 477.926 296.503 475.454 294.225 473.871V473.69L299.656 472.71C299.842 473.257 300.123 473.767 300.485 474.217L301.24 475.363L320.036 501.55L315.782 478.047C315.148 474.579 314.741 472.092 312.433 470.584V470.403L318.98 469.212V469.408C317.381 471.609 317.833 474.097 318.467 477.564L324.758 512.345C321.846 511.35 320.323 509.496 318.045 506.315L300.41 481.65L304.785 505.651ZM326.13 466.981L327.79 466.498L331.32 478.665L329.645 479.147L326.13 466.981ZM352.349 465.865C351.42 465.031 350.294 464.448 349.077 464.171C347.86 463.894 346.592 463.932 345.394 464.282C343.373 465.051 341.321 467.297 342.89 471.383C345.983 479.434 358.081 474.654 362.259 485.54C364.673 491.826 362.969 499.229 357.462 501.339C355.236 502.207 352.812 502.437 350.463 502.003L346.661 495.038C349.905 497.239 353.51 498.053 356.271 496.952C357.692 496.237 358.773 494.99 359.279 493.482C359.785 491.975 359.674 490.328 358.971 488.902C355.456 479.735 343.886 486.037 339.149 473.569C336.313 466.167 339.782 461.598 344.082 460C345.915 459.294 347.893 459.046 349.844 459.277L352.349 465.865ZM405.946 470.644C406.242 472.221 406.071 473.849 405.455 475.33C404.838 476.81 403.804 478.079 402.477 478.981C401.25 479.73 399.841 480.126 398.404 480.126C396.967 480.126 395.557 479.73 394.331 478.981C390.68 476.976 388.463 473.388 386.034 469.559L376.983 455.387C375.474 453.005 373.196 448.98 370.949 449.01L370.843 448.859L376.877 444.985L376.983 445.15C376.032 447.171 378.702 450.925 380.226 453.307L389.277 467.493C393.803 474.549 397.68 476.705 400.953 474.594C402.748 473.463 403.774 471.081 403.231 467.915C402.834 466.002 402.009 464.203 400.817 462.654L390.62 446.688C389.111 444.291 386.803 440.296 384.586 440.311L384.48 440.145L390.514 436.286L390.635 436.421C389.654 438.472 392.324 442.226 393.878 444.653L406.67 464.674C408.179 467.056 410.472 471.051 412.704 471.021L412.81 471.187L408.119 474.202L405.946 470.644ZM421.092 454.483C423.4 457.151 425.029 459.081 427.82 459.247L427.941 459.382L422.902 463.769L422.766 463.619C423.008 460.83 421.348 458.93 419.04 456.277L402.552 437.296C400.229 434.642 398.585 432.773 395.854 432.592L395.734 432.456L399.897 428.838C400.345 429.2 400.857 429.476 401.406 429.652L402.628 430.27L432.164 443.175L416.506 425.084C414.183 422.43 412.569 420.561 409.808 420.38L409.687 420.244L414.711 415.887L414.832 416.023C414.59 418.737 416.25 420.651 418.558 423.305L441.698 450.08C438.681 450.698 436.434 449.899 432.813 448.286L405.056 436.09L421.092 454.483ZM426.688 415.872C424.561 413.912 421.348 410.596 419.146 411.199L419.01 411.078L423.883 405.801L424.018 405.937C423.626 408.123 427.201 411.123 429.283 413.038L446.752 429.139C448.849 431.069 452.062 434.341 454.294 433.768L454.43 433.903L449.558 439.165L449.422 439.044C449.875 436.889 446.284 433.888 444.202 431.974L426.688 415.872ZM446.933 395.203C443.916 391.69 440.612 387.559 437.882 388.494L437.731 388.373L441.11 383.85L469.772 417.862C465.865 418.239 464.945 418.631 460.298 416.521L436.268 405.59C433.251 404.233 430.007 402.5 427.292 402.575L427.141 402.455L430.46 398.037L431.033 398.52C432.73 399.561 434.505 400.468 436.343 401.233L461.867 412.902L446.933 395.203ZM478.536 391.992L481.554 388.207C483.062 386.232 483.273 383.323 481.81 380.292V380.202L488.116 385.78L480.347 399.424L480.196 399.319C480.196 397.087 476.017 394.962 473.543 393.544L452.952 381.71C450.448 380.202 446.571 377.775 444.565 378.845L444.399 378.755L450.433 368.201C450.749 367.659 451.187 367.161 451.051 366.513V366.407L457.447 370.086V370.191C456.529 370.089 455.603 370.289 454.808 370.759C454.014 371.23 453.394 371.946 453.042 372.8C452.361 373.902 451.853 375.102 451.534 376.358L461.701 382.207L463.934 378.302C464.221 377.859 464.358 377.336 464.326 376.81V376.704L470.119 380.036V380.142C468.233 379.75 467.494 381.152 466.921 382.177L465.533 384.604L478.536 391.992ZM458.926 350.487C460.932 345.828 466.076 345.029 471.341 347.291C476.606 349.552 479.291 353.879 479.155 357.196L491.796 356.698C495.402 356.501 498.959 355.78 502.356 354.557L500.983 357.754C500.199 359.593 498.947 360.422 496.352 360.543L485.792 361.01L476.243 360.708C476.741 357.693 475.987 353.472 470.541 351.135C466.378 349.356 462.999 350.457 462.184 352.854C461.918 353.688 461.736 354.546 461.641 355.417L487.588 366.558C490.243 367.704 494.391 369.724 496.186 368.412H496.367L493.501 375.046H493.335C493.048 372.83 488.659 371.232 486.064 370.101L464.221 360.724C461.566 359.578 457.432 357.527 455.577 358.824H455.396L458.926 350.487ZM476.243 323.711C475.019 323.936 473.872 324.469 472.911 325.261C471.95 326.052 471.207 327.076 470.752 328.234C470.134 330.3 470.677 333.3 474.856 334.536C483.122 337.009 486.713 324.511 497.891 327.842C504.347 329.772 509.175 335.622 507.5 341.275C506.831 343.565 505.535 345.622 503.759 347.215L495.9 346.009C499.611 344.803 502.431 342.406 503.276 339.587C503.578 338.022 503.247 336.401 502.357 335.079C501.466 333.757 500.089 332.841 498.524 332.531C489.111 329.727 487.09 342.677 474.282 338.878C466.74 336.602 465.231 331.069 466.483 326.651C467.047 324.774 468.05 323.058 469.41 321.646L476.243 323.711ZM480.196 312.751C477.345 312.193 472.879 311.032 471.341 312.751H471.145L472.548 305.726H472.744C473.543 307.806 478.159 308.5 480.95 309.057L504.242 313.686C507.017 314.244 511.483 315.359 513.036 313.686H513.217L511.815 320.726H511.633C510.894 318.646 506.263 317.967 503.487 317.41L480.196 312.751ZM507.907 291.343C511.498 291.554 513.942 291.735 516.008 289.835H516.204L515.782 297.373H515.616C514.53 295.413 509.929 295.383 507.093 295.217L479.034 293.634L478.838 296.951C478.783 297.854 478.962 298.757 479.358 299.57C479.755 300.384 480.355 301.081 481.101 301.595V301.7L473.664 299.921V299.801C473.932 299.373 474.111 298.896 474.192 298.399V297.449L474.991 283.383C475.085 282.774 474.968 282.152 474.66 281.619V281.513L482.081 283.141V283.247C481.327 283.334 480.633 283.702 480.138 284.277C479.643 284.853 479.384 285.594 479.411 286.353L479.215 289.745L507.907 291.343ZM508.209 264.085C511.98 263.799 513.866 263.663 516.038 261.552H516.234L516.793 268.894H516.596C514.892 267.161 510.819 267.733 507.862 267.96L498.555 268.653L482.247 276.191C479.547 277.412 477.541 278.332 476.032 280.262L475.776 276.824C475.658 276.226 475.743 275.605 476.016 275.06C476.289 274.514 476.735 274.074 477.284 273.809L493.229 266.558L481.161 262.758C479.547 262.246 476.455 261.597 474.916 263.829H474.886L474.388 257.24L498.343 264.779L508.209 264.085ZM78.0386 170.266C76.7463 169.536 75.698 168.442 75.025 167.12C74.352 165.798 74.0842 164.307 74.2551 162.834C74.4259 161.361 75.0279 159.97 75.9857 158.837C76.9434 157.704 78.2143 156.879 79.6392 156.464C81.0642 156.05 82.5798 156.064 83.9964 156.507C85.413 156.949 86.6676 157.799 87.6031 158.95C88.5385 160.102 89.1133 161.504 89.2555 162.98C89.3976 164.456 89.1008 165.942 88.4021 167.25C87.9287 168.137 87.2826 168.92 86.5018 169.554C85.7211 170.188 84.8214 170.659 83.8558 170.94C82.8902 171.221 81.8781 171.306 80.8791 171.19C79.8801 171.074 78.9143 170.76 78.0386 170.266ZM77.752 141.953L76.8318 143.596L71.9441 140.882C71.3412 140.546 70.6776 140.331 69.9916 140.251C69.3056 140.172 68.6106 140.228 67.9463 140.417C67.2821 140.606 66.6617 140.924 66.1207 141.353C65.5797 141.782 65.1288 142.314 64.7937 142.917L53.9022 162.517L50.2365 160.466L64.8239 134.294L58.3674 130.706L39.7523 164.145L51.7299 170.808C52.3338 171.144 52.9981 171.358 53.6848 171.437C54.3714 171.515 55.0669 171.458 55.7312 171.267C56.3956 171.077 57.0157 170.757 57.5561 170.327C58.0966 169.896 58.5466 169.363 58.8803 168.758L69.6964 149.385L72.7135 151.059L58.2317 177.005L64.7032 180.608L69.093 172.663C70.615 174.786 72.6498 176.49 75.0079 177.616C77.3661 178.743 79.971 179.254 82.5802 179.104C85.1894 178.953 87.7181 178.146 89.931 176.756C92.1439 175.366 93.9689 173.439 95.2364 171.155C96.5039 168.871 97.1725 166.303 97.1801 163.691C97.1876 161.079 96.5339 158.508 95.2797 156.216C94.0255 153.925 92.2116 151.987 90.0068 150.585C87.802 149.182 85.278 148.36 82.6697 148.194L84.1783 145.586C84.5869 144.734 84.6551 143.759 84.369 142.859C84.0828 141.959 83.4638 141.202 82.6383 140.742C81.8128 140.283 80.8429 140.155 79.9265 140.386C79.01 140.616 78.2161 141.187 77.7067 141.983L77.752 141.953ZM107.41 101.277L102.16 95.2465L110.276 88.1456L105.403 82.5975L91.0571 95.1711L101.617 107.232C102.78 108.557 104.421 109.366 106.18 109.482C107.94 109.598 109.673 109.011 111 107.85L126.553 94.2816L121.68 88.7336L107.41 101.277Z" fill="#912642"/>
<path d="M116.328 69.9969C115.915 70.3606 115.577 70.8029 115.334 71.2983C115.091 71.7938 114.948 72.3326 114.913 72.8837C114.878 73.4349 114.952 73.9875 115.13 74.51C115.308 75.0324 115.588 75.5142 115.952 75.9278L116.961 77.0928L111.012 82.3278L115.876 87.9108L121.9 82.6607L131.658 93.9628L137.953 88.4101L122.247 70.3902C121.513 69.5514 120.478 69.0389 119.368 68.9652C118.259 68.8915 117.166 69.2624 116.328 69.9969ZM266.227 41.1288C265.335 40.4443 264.592 39.5839 264.043 38.6005C263.494 37.617 263.151 36.5312 263.035 35.4097V27.9355H273.35V20.5369H245.205V27.9355H254.662V35.2433C254.584 37.4105 253.678 39.4644 252.132 40.9775C251.02 41.8496 249.735 42.4723 248.363 42.8038C246.992 43.1352 245.566 43.1677 244.181 42.899V50.3279C246.825 50.9634 249.593 50.8472 252.176 49.9921C254.758 49.1371 257.053 47.5769 258.803 45.4863C258.803 45.4863 263.848 52.2645 274.374 50.222V42.899C271.536 43.2897 268.651 42.663 266.227 41.1288ZM289.78 22.8064H283.846V22.065C283.846 20.9495 283.405 19.8796 282.62 19.0908C281.835 18.302 280.77 17.8589 279.66 17.8589C278.55 17.8589 277.485 18.302 276.7 19.0908C275.915 19.8796 275.474 20.9495 275.474 22.065V67.8938H283.846V30.205H289.78V22.8064ZM371.566 39.9941C370.541 39.5664 369.39 39.5634 368.363 39.9858C367.336 40.4081 366.517 41.2215 366.084 42.2484L365.798 42.9444L362.229 41.4314L362.515 40.7506C362.826 39.7475 362.751 38.664 362.307 37.7133C361.862 36.7626 361.08 36.0134 360.113 35.6132C359.146 35.213 358.065 35.1906 357.083 35.5505C356.101 35.9105 355.288 36.6266 354.805 37.5581L346.734 56.7732L334.295 51.5231L340.107 37.5581L349.474 41.5071L352.335 34.6834L335.304 27.4967L326.419 48.6787C326.06 49.5154 325.87 50.4154 325.86 51.3264C325.85 52.2373 326.021 53.1412 326.361 53.9857C326.701 54.8301 327.205 55.5982 327.843 56.2455C328.481 56.8929 329.241 57.4065 330.078 57.7567L343.887 63.5817L337.126 79.7406L344.851 82.9481L359.353 48.2702L362.907 49.7832L348.42 84.4611L356.13 87.7292L373.81 45.5014C374.023 44.9918 374.133 44.445 374.136 43.8924C374.138 43.3397 374.032 42.792 373.824 42.2806C373.615 41.7691 373.309 41.3039 372.921 40.9116C372.534 40.5193 372.073 40.2075 371.566 39.9941ZM445.748 97.0644L441.877 93.5391L442.374 92.9793C442.744 92.5677 443.029 92.0866 443.213 91.5639C443.397 91.0412 443.476 90.487 443.446 89.9334C443.416 89.3797 443.278 88.8375 443.039 88.3378C442.799 87.8382 442.464 87.391 442.052 87.022C441.64 86.653 441.16 86.3695 440.638 86.1878C440.117 86.006 439.565 85.9297 439.014 85.963C438.463 85.9964 437.924 86.1389 437.428 86.3823C436.933 86.6257 436.489 86.9652 436.125 87.3812L419.289 106.4L425.553 111.998L436.953 99.107L440.853 102.587L445.748 97.0644ZM141.914 92.9339C141.127 92.0523 140.028 91.5145 138.852 91.4354C137.676 91.3562 136.516 91.742 135.619 92.5103L109.386 115.614L114.25 121.182L137.532 100.681L145.769 110.182L152.064 104.629L141.914 92.9339ZM420.282 109.184C421.43 110.212 422.126 111.656 422.216 113.199C422.306 114.742 421.784 116.257 420.764 117.414L412.045 127.264L405.735 121.666L413.4 112.996L389.968 92.0261L394.863 86.5037L420.282 109.184ZM192.513 29.7208C191.996 29.9114 191.522 30.2023 191.118 30.577C190.714 30.9516 190.387 31.4026 190.156 31.9042C189.925 32.4058 189.795 32.9482 189.773 33.5004C189.751 34.0525 189.838 34.6037 190.028 35.1222L190.841 37.3615L185.766 39.2376C182.684 37.7259 179.218 37.1871 175.826 37.692C172.433 38.1968 169.271 39.7218 166.758 42.0663C164.244 44.4107 162.495 47.4647 161.742 50.8266C160.989 54.1885 161.266 57.7007 162.538 60.9012C163.809 64.1016 166.015 66.8404 168.866 68.7572C171.716 70.674 175.077 71.679 178.507 71.64C181.936 71.6009 185.274 70.5197 188.08 68.5386C190.887 66.5575 193.03 63.7692 194.229 60.5406L198.747 58.8763L205.795 78.1368L213.656 75.2319L197.919 32.2173C197.729 31.695 197.439 31.2157 197.064 30.807C196.689 30.3983 196.237 30.0683 195.734 29.8362C195.231 29.604 194.688 29.4743 194.135 29.4545C193.582 29.4347 193.03 29.5252 192.513 29.7208ZM187.468 55.1543C187.306 57.2241 186.452 59.178 185.046 60.6985C183.639 62.219 181.761 63.2167 179.718 63.5292C177.675 63.8417 175.587 63.4508 173.794 62.42C172 61.3891 170.606 59.779 169.839 57.8514C169.071 55.9238 168.975 53.7921 169.567 51.8028C170.158 49.8135 171.402 48.0836 173.095 46.8945C174.789 45.7053 176.834 45.1268 178.896 45.2529C180.959 45.3791 182.918 46.2025 184.456 47.5893L193.491 44.2456L196.292 51.8106L187.468 55.1543ZM428.701 79.5136L420.177 89.1363C419.373 90.0481 418.317 90.6997 417.144 91.0085C415.971 91.3174 414.733 91.2696 413.587 90.8713C412.441 90.473 411.438 89.742 410.705 88.7709C409.973 87.7998 409.544 86.6322 409.472 85.4159C409.4 84.1995 409.689 82.9892 410.303 81.938C410.916 80.8868 411.826 80.042 412.917 79.5105C414.008 78.979 415.232 78.7848 416.433 78.9523C417.634 79.1199 418.759 79.6417 419.665 80.4517L421.427 81.9647C421.862 82.3536 422.434 82.5529 423.015 82.5189C423.597 82.4848 424.142 82.2202 424.529 81.7831L427.842 78.0309C428.581 77.1963 428.96 76.1009 428.895 74.9858C428.83 73.8707 428.327 72.8272 427.496 72.0848C426.665 71.3425 425.575 70.9621 424.465 71.0273C423.355 71.0926 422.316 71.5981 421.578 72.4328L420.704 73.4162L411.428 65.125L406.518 70.6626L408.566 72.4782C406.817 73.5369 405.316 74.9626 404.165 76.6579C403.015 78.3532 402.242 80.2781 401.9 82.301C401.559 84.3239 401.655 86.3971 402.185 88.3789C402.714 90.3607 403.662 92.2044 404.966 93.7839C406.269 95.3634 407.897 96.6415 409.737 97.5309C411.578 98.4202 413.588 98.8999 415.63 98.937C417.671 98.9741 419.697 98.5677 421.569 97.7458C423.44 96.9239 425.112 95.7057 426.472 94.1746L434.739 84.8394L428.701 79.5136ZM464.135 182.019L463.864 181.52L490.579 166.163C491.843 165.428 492.769 164.222 493.155 162.806C493.541 161.39 493.357 159.878 492.642 158.598L476.83 130.819L470.49 134.481L484.886 159.778L459.753 174.227L456.936 169.477L472.176 160.716C472.68 160.457 473.125 160.097 473.486 159.659C473.847 159.222 474.116 158.715 474.277 158.17C474.438 157.625 474.487 157.053 474.421 156.488C474.356 155.924 474.177 155.378 473.896 154.885C473.615 154.392 473.237 153.961 472.786 153.618C472.334 153.276 471.818 153.029 471.269 152.892C470.72 152.756 470.149 152.732 469.59 152.824C469.032 152.915 468.498 153.119 468.02 153.424L452.78 162.169L451.274 159.582L466.514 150.836C466.996 150.568 467.42 150.207 467.763 149.774C468.105 149.341 468.36 148.845 468.512 148.313C468.663 147.781 468.709 147.225 468.647 146.675C468.585 146.125 468.415 145.594 468.148 145.11C467.881 144.626 467.522 144.2 467.091 143.855C466.66 143.511 466.166 143.255 465.636 143.103C465.107 142.95 464.553 142.904 464.006 142.967C463.459 143.03 462.93 143.2 462.448 143.468L447.208 152.228L444.001 146.585L437.585 150.262L457.72 185.651C458.207 186.505 459.012 187.131 459.958 187.389C460.904 187.647 461.914 187.517 462.764 187.027C463.615 186.538 464.237 185.729 464.494 184.778C464.751 183.828 464.622 182.814 464.135 181.959V182.019Z" fill="#912642"/>
<path d="M304.718 253.373L358.295 219.888H304.718V253.373ZM304.718 287.607V311.415H233.282V253.373L179.705 219.888H242.803V287.607H304.718Z" fill="#912642"/>
</svg>
